<svg width="43" height="37" viewBox="0 0 43 37" fill="none" xmlns="http://www.w3.org/2000/svg">
<path d="M31.684 4.08937C31.3863 3.95055 31.0457 3.93568 30.737 4.04802C30.4283 4.16037 30.1769 4.39073 30.0381 4.68843C29.8993 4.98613 29.8844 5.32678 29.9968 5.63545C30.1091 5.94412 30.3395 6.19551 30.6372 6.33433C32.7654 7.3282 34.412 9.12623 35.2154 11.3334C36.0187 13.5406 35.9131 15.9764 34.9216 18.1057C34.7803 18.4061 34.764 18.7503 34.8765 19.0626C34.9889 19.375 35.2208 19.6298 35.5212 19.7712C35.8216 19.9125 36.1658 19.9288 36.4781 19.8163C36.7905 19.7039 37.0453 19.4719 37.1867 19.1716C37.8161 17.8226 38.1736 16.3628 38.2386 14.8756C38.3037 13.3884 38.0752 11.903 37.5661 10.5042C37.0569 9.10533 36.2772 7.82051 35.2714 6.72311C34.2656 5.6257 33.0534 4.73722 31.7041 4.1084L31.684 4.08937Z" fill="white"/>
<path d="M29.6959 8.34876C29.5485 8.28002 29.389 8.24099 29.2265 8.2339C29.064 8.22681 28.9017 8.25178 28.7489 8.30741C28.5961 8.36304 28.4557 8.44823 28.3358 8.55811C28.2159 8.66799 28.1188 8.80041 28.05 8.94782C27.9813 9.09523 27.9423 9.25473 27.9352 9.41722C27.9281 9.57971 27.9531 9.742 28.0087 9.89484C28.0643 10.0477 28.1495 10.1881 28.2594 10.308C28.3693 10.4279 28.5017 10.525 28.6491 10.5937C29.6482 11.06 30.4212 11.904 30.7983 12.94C31.1754 13.976 31.1256 15.1194 30.6601 16.1188C30.5212 16.4165 30.5064 16.7572 30.6187 17.0658C30.7311 17.3745 30.9614 17.6259 31.2591 17.7647C31.5568 17.9035 31.8975 17.9184 32.2061 17.8061C32.5148 17.6937 32.7662 17.4634 32.905 17.1657C33.6469 15.5707 33.7257 13.7465 33.1241 12.0935C32.5224 10.4405 31.2895 9.09371 29.6959 8.34876ZM23.3271 3.98825C23.1143 3.94404 22.8935 3.95667 22.6871 4.02486C22.4807 4.09305 22.2959 4.21441 22.1513 4.37671L13.4658 13.9728L3.28214 17.6794C2.97365 17.7917 2.72239 18.0219 2.58365 18.3194C2.44491 18.617 2.43004 18.9574 2.54232 19.2659L5.0825 26.245C5.19478 26.5535 5.42502 26.8048 5.72255 26.9435C6.02009 27.0822 6.36055 27.0971 6.66904 26.9848L8.08812 26.4683L13.2607 34.1293C13.4156 34.3573 13.6421 34.5271 13.9044 34.6118C14.1667 34.6965 14.4497 34.6912 14.7087 34.5968L19.943 32.6917C20.1201 32.6273 20.2801 32.5234 20.411 32.3878C20.5418 32.2522 20.6399 32.0885 20.6979 31.9092C20.7559 31.7299 20.7722 31.5398 20.7456 31.3533C20.7189 31.1667 20.65 30.9887 20.5442 30.8329L15.7186 23.6911L16.8469 23.2804L29.7093 25.0337C29.9211 25.0636 30.1371 25.0381 30.3361 24.9597C30.5352 24.8813 30.7105 24.7526 30.845 24.5862C30.9795 24.4198 31.0685 24.2214 31.1035 24.0104C31.1385 23.7993 31.1181 23.5828 31.0445 23.382L24.2707 4.77108C24.1949 4.56989 24.0681 4.39191 23.9026 4.25464C23.7372 4.11737 23.5389 4.02556 23.3271 3.98825ZM14.7692 31.9402L10.4843 25.5962L13.3224 24.5632L17.6074 30.9072L14.7692 31.9402ZM15.1278 21.2716L6.9855 24.2351L5.29205 19.5824L13.4343 16.6188L15.1278 21.2716ZM28.0175 22.3036L17.6235 20.8901L15.5934 15.3127L22.6471 7.54869L28.0175 22.3036Z" fill="white"/>
</svg>
