<svg width="32" height="32" viewBox="0 0 32 32" fill="none" xmlns="http://www.w3.org/2000/svg">
<path d="M18.2766 17.3025L18.2749 17.3017C17.9245 17.1333 17.5031 17.2004 17.2266 17.4769L11.9531 22.7504H9.66667C9.16193 22.7504 8.75 23.1623 8.75 23.667V25.417H7C6.49526 25.417 6.08333 25.829 6.08333 26.3337V28.6201L5.28645 29.417H2.58333V26.7139L14.5201 14.7771C14.7948 14.5025 14.8687 14.0808 14.6945 13.7271C14.1781 12.665 13.9167 11.5226 13.9167 10.3337C13.9167 6.06177 17.3947 2.5837 21.6667 2.5837C25.9386 2.5837 29.4167 6.06177 29.4167 10.3337C29.4167 14.6056 25.9386 18.0837 21.6667 18.0837C20.4777 18.0837 19.3386 17.8222 18.2766 17.3025ZM21.6667 4.75037C18.5886 4.75037 16.0833 7.25563 16.0833 10.3337C16.0833 13.4118 18.5886 15.917 21.6667 15.917C24.7447 15.917 27.25 13.4118 27.25 10.3337C27.25 7.25563 24.7447 4.75037 21.6667 4.75037ZM21.6667 14.0837C19.5981 14.0837 17.9167 12.4023 17.9167 10.3337C17.9167 8.2651 19.5981 6.5837 21.6667 6.5837C23.7353 6.5837 25.4167 8.2651 25.4167 10.3337C25.4167 12.4023 23.7353 14.0837 21.6667 14.0837ZM21.6667 0.750366C16.3819 0.750366 12.0833 5.04896 12.0833 10.3337C12.0833 11.5799 12.318 12.7864 12.7784 13.9251L1.02226 25.6846C1.02181 25.685 1.02136 25.6855 1.02091 25.6859C0.845592 25.8573 0.75 26.0919 0.75 26.3337V30.3337C0.75 30.8384 1.16193 31.2504 1.66667 31.2504H5.66667C5.90853 31.2504 6.14309 31.1548 6.31452 30.9794C6.31494 30.979 6.31536 30.9785 6.31578 30.9781L7.6444 29.6495C7.64485 29.6491 7.64529 29.6486 7.64574 29.6482C7.82107 29.4768 7.91667 29.2422 7.91667 29.0004V27.2504H9.66667C10.1714 27.2504 10.5833 26.8384 10.5833 26.3337V24.5837H12.3333C12.5752 24.5837 12.8098 24.4881 12.9812 24.3127C12.9816 24.3123 12.982 24.3119 12.9825 24.3114L18.075 19.2189C19.214 19.6824 20.4205 19.917 21.6667 19.917C26.9514 19.917 31.25 15.6184 31.25 10.3337C31.25 5.04896 26.9514 0.750366 21.6667 0.750366Z" fill="white" stroke="white" stroke-width="0.5"/>
</svg>
