<svg width="37" height="37" viewBox="0 0 37 37" fill="none" xmlns="http://www.w3.org/2000/svg">
<path d="M35.1209 29.7795L32.5168 27.1797C31.8406 26.5046 30.9366 26.1312 29.9738 26.1312C29.3767 26.1312 28.8096 26.2904 28.3001 26.5597L27.4105 25.6715C29.7496 22.9497 31.1728 19.421 31.1728 15.5608C31.1728 6.98103 24.1805 0.000366211 15.5864 0.000366211C6.99229 0.000366211 0 6.98103 0 15.5608C0 24.1406 6.99229 31.1213 15.5864 31.1213C19.453 31.1213 22.9875 29.6993 25.7139 27.364L26.6036 28.2522C26.3326 28.7621 26.1743 29.3271 26.1743 29.9231C26.1743 30.8843 26.5484 31.7868 27.2246 32.4619L29.8287 35.0617C30.505 35.7368 31.409 36.1102 32.3717 36.1102C33.3345 36.1102 34.2385 35.7368 34.9147 35.0617L35.1209 34.8558C35.7971 34.1807 36.1712 33.2782 36.1712 32.3171C36.1712 31.3559 35.7971 30.4546 35.1209 29.7795ZM15.5864 28.7274C10.8433 28.7274 6.69016 26.2066 4.36539 22.4445C4.39056 22.423 4.42054 22.4158 4.44452 22.3919L10.9033 15.9439L14.867 18.9123C15.3442 19.2726 16.0132 19.2235 16.434 18.801L22.7801 12.4655V14.3639C22.7801 15.0258 23.316 15.5608 23.9791 15.5608C24.6421 15.5608 25.178 15.0258 25.178 14.3639V9.57604C25.178 9.42043 25.1468 9.26483 25.0857 9.1188C24.9634 8.82555 24.7308 8.59334 24.4371 8.47125C24.2908 8.4102 24.1349 8.37908 23.9791 8.37908H19.1832C18.5214 8.37908 17.9843 8.91412 17.9843 9.57604C17.9843 10.238 18.5214 10.773 19.1832 10.773H21.0848L15.4737 16.3748L11.5099 13.4063C11.0328 13.0472 10.3637 13.0951 9.94291 13.5176L3.25636 20.1931C2.71083 18.7495 2.39791 17.1923 2.39791 15.5608C2.39791 8.30128 8.31474 2.39428 15.5864 2.39428C22.858 2.39428 28.7749 8.30128 28.7749 15.5608C28.7749 22.8204 22.858 28.7274 15.5864 28.7274ZM33.4256 33.1645L33.2194 33.3704C32.7698 33.8169 31.9737 33.8169 31.5241 33.3704L28.9199 30.7706C28.6957 30.5456 28.5722 30.2463 28.5722 29.9243C28.5722 29.6024 28.6969 29.3019 28.9199 29.0781L29.1262 28.8722C29.3516 28.6484 29.6513 28.5251 29.9738 28.5251C30.2963 28.5251 30.5973 28.6496 30.8215 28.8722L33.4256 31.472C33.6498 31.697 33.7733 31.9963 33.7733 32.3183C33.7733 32.6402 33.6486 32.9407 33.4256 33.1645Z" fill="white"/>
<path d="M10.7927 20.348C10.1309 20.348 9.59375 20.8831 9.59375 21.545V25.1361C9.59375 25.7981 10.1309 26.3331 10.7927 26.3331C11.4545 26.3331 11.9917 25.7981 11.9917 25.1361V21.545C11.9917 20.8831 11.4545 20.348 10.7927 20.348ZM15.5885 20.348C14.9267 20.348 14.3896 20.8831 14.3896 21.545V25.1361C14.3896 25.7981 14.9267 26.3331 15.5885 26.3331C16.2503 26.3331 16.7875 25.7981 16.7875 25.1361V21.545C16.7875 20.8831 16.2503 20.348 15.5885 20.348ZM20.3843 20.348C19.7213 20.348 19.1854 20.8831 19.1854 21.545V25.1361C19.1854 25.7981 19.7213 26.3331 20.3843 26.3331C21.0473 26.3331 21.5833 25.7981 21.5833 25.1361V21.545C21.5833 20.8831 21.0473 20.348 20.3843 20.348Z" fill="white"/>
</svg>
